<svg width="98" height="90" viewBox="0 0 98 90" fill="none" xmlns="http://www.w3.org/2000/svg">
<path d="M20.4167 47.8485C20.4167 42.757 20.4167 40.2112 21.5374 37.9734C22.6581 35.7356 24.7628 34.0788 28.9723 30.7653L33.0556 27.551C40.6642 21.5618 44.4685 18.5671 49 18.5671C53.5316 18.5671 57.3359 21.5618 64.9444 27.551L69.0277 30.7653C73.2372 34.0788 75.3419 35.7356 76.4626 37.9734C77.5834 40.2112 77.5834 42.757 77.5834 47.8485V63.75C77.5834 70.8211 77.5834 74.3566 75.1914 76.5533C72.7994 78.75 68.9496 78.75 61.25 78.75H36.75C29.0504 78.75 25.2006 78.75 22.8086 76.5533C20.4167 74.3566 20.4167 70.8211 20.4167 63.75V47.8485Z" stroke="white" stroke-width="7"/>
<path d="M59.2084 78.75V57.25C59.2084 56.6977 58.7606 56.25 58.2084 56.25H39.7917C39.2394 56.25 38.7917 56.6977 38.7917 57.25V78.75" stroke="white" stroke-width="7" stroke-linecap="round" stroke-linejoin="round"/>
</svg>
