<svg width="302" height="303" viewBox="0 0 302 303" fill="none" xmlns="http://www.w3.org/2000/svg">
<path d="M25.4837 260.068L22.4723 260.92C22.2829 260.419 22.0036 259.931 21.6342 259.457C21.2744 258.974 20.782 258.577 20.157 258.264C19.532 257.952 18.7318 257.795 17.7564 257.795C16.4212 257.795 15.3085 258.103 14.4183 258.719C13.5376 259.325 13.0973 260.097 13.0973 261.034C13.0973 261.867 13.4003 262.526 14.0064 263.009C14.6125 263.491 15.5594 263.894 16.8473 264.216L20.0859 265.011C22.0367 265.485 23.4903 266.209 24.4467 267.185C25.4032 268.151 25.8814 269.396 25.8814 270.92C25.8814 272.17 25.5215 273.288 24.8018 274.273C24.0916 275.258 23.0973 276.034 21.8189 276.602C20.5405 277.17 19.0537 277.455 17.3587 277.455C15.1333 277.455 13.2914 276.972 11.8331 276.006C10.3748 275.04 9.45147 273.629 9.06321 271.773L12.245 270.977C12.5481 272.152 13.121 273.032 13.9638 273.619C14.8161 274.206 15.9287 274.5 17.3018 274.5C18.8643 274.5 20.1049 274.169 21.0234 273.506C21.9515 272.833 22.4155 272.028 22.4155 271.091C22.4155 270.333 22.1503 269.699 21.62 269.188C21.0897 268.667 20.2753 268.278 19.1768 268.023L15.5405 267.17C13.5424 266.697 12.0746 265.963 11.1371 264.969C10.209 263.965 9.74503 262.71 9.74503 261.205C9.74503 259.973 10.0907 258.884 10.782 257.938C11.4827 256.991 12.4344 256.247 13.6371 255.707C14.8492 255.168 16.2223 254.898 17.7564 254.898C19.9155 254.898 21.6106 255.371 22.8416 256.318C24.0821 257.265 24.9628 258.515 25.4837 260.068ZM38.2798 263.875V277H34.9276V247.909H38.2798V258.591H38.5639C39.0753 257.464 39.8423 256.569 40.8651 255.906C41.8973 255.234 43.2704 254.898 44.9844 254.898C46.4711 254.898 47.7732 255.196 48.8906 255.793C50.008 256.38 50.8745 257.284 51.4901 258.506C52.1151 259.718 52.4276 261.261 52.4276 263.136V277H49.0753V263.364C49.0753 261.631 48.6255 260.291 47.7259 259.344C46.8357 258.387 45.5999 257.909 44.0185 257.909C42.92 257.909 41.9351 258.141 41.0639 258.605C40.2022 259.069 39.5204 259.746 39.0185 260.636C38.526 261.527 38.2798 262.606 38.2798 263.875ZM71.424 277.455C69.4543 277.455 67.7261 276.986 66.2393 276.048C64.7621 275.111 63.6068 273.799 62.7734 272.114C61.9496 270.428 61.5376 268.458 61.5376 266.205C61.5376 263.932 61.9496 261.948 62.7734 260.253C63.6068 258.558 64.7621 257.241 66.2393 256.304C67.7261 255.366 69.4543 254.898 71.424 254.898C73.3937 254.898 75.1172 255.366 76.5945 256.304C78.0812 257.241 79.2365 258.558 80.0604 260.253C80.8937 261.948 81.3104 263.932 81.3104 266.205C81.3104 268.458 80.8937 270.428 80.0604 272.114C79.2365 273.799 78.0812 275.111 76.5945 276.048C75.1172 276.986 73.3937 277.455 71.424 277.455ZM71.424 274.443C72.9202 274.443 74.1513 274.06 75.1172 273.293C76.0831 272.526 76.7981 271.517 77.2621 270.267C77.7261 269.017 77.9581 267.663 77.9581 266.205C77.9581 264.746 77.7261 263.387 77.2621 262.128C76.7981 260.868 76.0831 259.85 75.1172 259.074C74.1513 258.297 72.9202 257.909 71.424 257.909C69.9278 257.909 68.6967 258.297 67.7308 259.074C66.7649 259.85 66.05 260.868 65.5859 262.128C65.1219 263.387 64.8899 264.746 64.8899 266.205C64.8899 267.663 65.1219 269.017 65.5859 270.267C66.05 271.517 66.7649 272.526 67.7308 273.293C68.6967 274.06 69.9278 274.443 71.424 274.443ZM90.4276 285.182V255.182H93.6662V258.648H94.0639C94.3101 258.269 94.651 257.786 95.0866 257.199C95.5317 256.602 96.1662 256.072 96.9901 255.608C97.8234 255.134 98.9503 254.898 100.371 254.898C102.208 254.898 103.827 255.357 105.229 256.276C106.63 257.194 107.724 258.496 108.51 260.182C109.296 261.867 109.689 263.856 109.689 266.148C109.689 268.458 109.296 270.461 108.51 272.156C107.724 273.842 106.635 275.149 105.243 276.077C103.851 276.995 102.246 277.455 100.428 277.455C99.026 277.455 97.9039 277.223 97.0611 276.759C96.2183 276.285 95.5696 275.75 95.1151 275.153C94.6605 274.547 94.3101 274.045 94.0639 273.648H93.7798V285.182H90.4276ZM93.723 266.091C93.723 267.739 93.9645 269.192 94.4474 270.452C94.9304 271.702 95.6359 272.682 96.5639 273.392C97.492 274.093 98.6283 274.443 99.973 274.443C101.375 274.443 102.544 274.074 103.482 273.335C104.429 272.587 105.139 271.583 105.612 270.324C106.095 269.055 106.337 267.644 106.337 266.091C106.337 264.557 106.1 263.174 105.626 261.943C105.162 260.703 104.457 259.723 103.51 259.003C102.572 258.274 101.393 257.909 99.973 257.909C98.6094 257.909 97.4635 258.255 96.5355 258.946C95.6075 259.628 94.9067 260.584 94.4332 261.815C93.9598 263.037 93.723 264.462 93.723 266.091ZM118.803 285.182V255.182H122.041V258.648H122.439C122.685 258.269 123.026 257.786 123.462 257.199C123.907 256.602 124.541 256.072 125.365 255.608C126.198 255.134 127.325 254.898 128.746 254.898C130.583 254.898 132.202 255.357 133.604 256.276C135.005 257.194 136.099 258.496 136.885 260.182C137.671 261.867 138.064 263.856 138.064 266.148C138.064 268.458 137.671 270.461 136.885 272.156C136.099 273.842 135.01 275.149 133.618 276.077C132.226 276.995 130.621 277.455 128.803 277.455C127.401 277.455 126.279 277.223 125.436 276.759C124.593 276.285 123.945 275.75 123.49 275.153C123.036 274.547 122.685 274.045 122.439 273.648H122.155V285.182H118.803ZM122.098 266.091C122.098 267.739 122.339 269.192 122.822 270.452C123.305 271.702 124.011 272.682 124.939 273.392C125.867 274.093 127.003 274.443 128.348 274.443C129.75 274.443 130.919 274.074 131.857 273.335C132.804 272.587 133.514 271.583 133.987 270.324C134.47 269.055 134.712 267.644 134.712 266.091C134.712 264.557 134.475 263.174 134.001 261.943C133.537 260.703 132.832 259.723 131.885 259.003C130.947 258.274 129.768 257.909 128.348 257.909C126.984 257.909 125.839 258.255 124.911 258.946C123.982 259.628 123.282 260.584 122.808 261.815C122.335 263.037 122.098 264.462 122.098 266.091ZM147.178 277V255.182H150.53V277H147.178ZM148.882 251.545C148.229 251.545 147.665 251.323 147.192 250.878C146.728 250.433 146.496 249.898 146.496 249.273C146.496 248.648 146.728 248.113 147.192 247.668C147.665 247.223 148.229 247 148.882 247C149.536 247 150.094 247.223 150.558 247.668C151.032 248.113 151.268 248.648 151.268 249.273C151.268 249.898 151.032 250.433 150.558 250.878C150.094 251.323 149.536 251.545 148.882 251.545ZM164.022 263.875V277H160.67V255.182H163.908V258.591H164.192C164.704 257.483 165.48 256.593 166.522 255.92C167.564 255.239 168.908 254.898 170.556 254.898C172.033 254.898 173.326 255.201 174.434 255.807C175.542 256.403 176.404 257.312 177.019 258.534C177.635 259.746 177.942 261.28 177.942 263.136V277H174.59V263.364C174.59 261.65 174.145 260.314 173.255 259.358C172.365 258.392 171.143 257.909 169.59 257.909C168.52 257.909 167.564 258.141 166.721 258.605C165.888 259.069 165.229 259.746 164.746 260.636C164.263 261.527 164.022 262.606 164.022 263.875ZM196.875 285.636C195.256 285.636 193.864 285.428 192.699 285.011C191.534 284.604 190.563 284.064 189.787 283.392C189.02 282.729 188.409 282.019 187.955 281.261L190.625 279.386C190.928 279.784 191.312 280.239 191.776 280.75C192.24 281.271 192.874 281.721 193.679 282.099C194.493 282.488 195.559 282.682 196.875 282.682C198.636 282.682 200.09 282.256 201.236 281.403C202.382 280.551 202.955 279.216 202.955 277.398V272.966H202.67C202.424 273.364 202.074 273.856 201.619 274.443C201.174 275.021 200.53 275.537 199.688 275.991C198.854 276.437 197.727 276.659 196.307 276.659C194.545 276.659 192.964 276.242 191.562 275.409C190.17 274.576 189.067 273.364 188.253 271.773C187.448 270.182 187.045 268.25 187.045 265.977C187.045 263.742 187.438 261.796 188.224 260.139C189.01 258.473 190.104 257.185 191.506 256.276C192.907 255.357 194.527 254.898 196.364 254.898C197.784 254.898 198.911 255.134 199.744 255.608C200.587 256.072 201.231 256.602 201.676 257.199C202.131 257.786 202.481 258.269 202.727 258.648H203.068V255.182H206.307V277.625C206.307 279.5 205.881 281.025 205.028 282.199C204.186 283.383 203.049 284.249 201.619 284.798C200.199 285.357 198.617 285.636 196.875 285.636ZM196.761 273.648C198.106 273.648 199.242 273.34 200.17 272.724C201.098 272.109 201.804 271.223 202.287 270.068C202.77 268.913 203.011 267.53 203.011 265.92C203.011 264.348 202.775 262.961 202.301 261.759C201.828 260.556 201.127 259.614 200.199 258.932C199.271 258.25 198.125 257.909 196.761 257.909C195.341 257.909 194.157 258.269 193.21 258.989C192.273 259.708 191.567 260.674 191.094 261.886C190.63 263.098 190.398 264.443 190.398 265.92C190.398 267.436 190.634 268.776 191.108 269.94C191.591 271.096 192.301 272.005 193.239 272.668C194.186 273.321 195.36 273.648 196.761 273.648ZM235.045 247.909V277H231.693V247.909H235.045ZM245.185 277V255.182H248.538V277H245.185ZM246.89 251.545C246.237 251.545 245.673 251.323 245.2 250.878C244.736 250.433 244.504 249.898 244.504 249.273C244.504 248.648 244.736 248.113 245.2 247.668C245.673 247.223 246.237 247 246.89 247C247.543 247 248.102 247.223 248.566 247.668C249.04 248.113 249.276 248.648 249.276 249.273C249.276 249.898 249.04 250.433 248.566 250.878C248.102 251.323 247.543 251.545 246.89 251.545ZM274.132 260.068L271.121 260.92C270.931 260.419 270.652 259.931 270.283 259.457C269.923 258.974 269.43 258.577 268.805 258.264C268.18 257.952 267.38 257.795 266.405 257.795C265.07 257.795 263.957 258.103 263.067 258.719C262.186 259.325 261.746 260.097 261.746 261.034C261.746 261.867 262.049 262.526 262.655 263.009C263.261 263.491 264.208 263.894 265.496 264.216L268.734 265.011C270.685 265.485 272.139 266.209 273.095 267.185C274.052 268.151 274.53 269.396 274.53 270.92C274.53 272.17 274.17 273.288 273.45 274.273C272.74 275.258 271.746 276.034 270.467 276.602C269.189 277.17 267.702 277.455 266.007 277.455C263.782 277.455 261.94 276.972 260.482 276.006C259.023 275.04 258.1 273.629 257.712 271.773L260.893 270.977C261.196 272.152 261.769 273.032 262.612 273.619C263.464 274.206 264.577 274.5 265.95 274.5C267.513 274.5 268.753 274.169 269.672 273.506C270.6 272.833 271.064 272.028 271.064 271.091C271.064 270.333 270.799 269.699 270.268 269.188C269.738 268.667 268.924 268.278 267.825 268.023L264.189 267.17C262.191 266.697 260.723 265.963 259.786 264.969C258.857 263.965 258.393 262.71 258.393 261.205C258.393 259.973 258.739 258.884 259.43 257.938C260.131 256.991 261.083 256.247 262.286 255.707C263.498 255.168 264.871 254.898 266.405 254.898C268.564 254.898 270.259 255.371 271.49 256.318C272.731 257.265 273.611 258.515 274.132 260.068ZM293.065 255.182V258.023H281.758V255.182H293.065ZM285.053 249.955H288.406V270.75C288.406 271.697 288.543 272.407 288.817 272.881C289.102 273.345 289.461 273.657 289.897 273.818C290.342 273.97 290.811 274.045 291.303 274.045C291.673 274.045 291.976 274.027 292.212 273.989C292.449 273.941 292.638 273.903 292.781 273.875L293.462 276.886C293.235 276.972 292.918 277.057 292.511 277.142C292.103 277.237 291.587 277.284 290.962 277.284C290.015 277.284 289.087 277.08 288.178 276.673C287.279 276.266 286.531 275.646 285.934 274.812C285.347 273.979 285.053 272.928 285.053 271.659V249.955Z" fill="white"/>
<path d="M25.4837 260.068L25.756 261.03L26.7653 260.745L26.4318 259.75L25.4837 260.068ZM22.4723 260.92L21.5367 261.274L21.8609 262.133L22.7446 261.883L22.4723 260.92ZM21.6342 259.457L20.8323 260.055L20.8389 260.064L20.8457 260.072L21.6342 259.457ZM20.157 258.264L20.6042 257.37H20.6042L20.157 258.264ZM14.4183 258.719L14.9852 259.543L14.9871 259.541L14.4183 258.719ZM14.0064 263.009L13.3832 263.791H13.3832L14.0064 263.009ZM16.8473 264.216L16.6048 265.186L16.6088 265.187L16.8473 264.216ZM20.0859 265.011L19.8474 265.983L19.8501 265.983L20.0859 265.011ZM24.4467 267.185L23.7327 267.885L23.7362 267.888L24.4467 267.185ZM24.8018 274.273L23.9944 273.683L23.9908 273.688L24.8018 274.273ZM11.8331 276.006L12.3853 275.172L11.8331 276.006ZM9.06321 271.773L8.82067 270.803L7.88743 271.036L8.0844 271.977L9.06321 271.773ZM12.245 270.977L13.2133 270.727L12.9653 269.766L12.0025 270.007L12.245 270.977ZM13.9638 273.619L13.3922 274.44L13.3965 274.443L13.9638 273.619ZM21.0234 273.506L21.6086 274.317L21.6101 274.315L21.0234 273.506ZM21.62 269.188L20.9193 269.901L20.9259 269.907L21.62 269.188ZM19.1768 268.023L18.9487 268.996L18.9501 268.997L19.1768 268.023ZM15.5405 267.17L15.3099 268.144L15.3123 268.144L15.5405 267.17ZM11.1371 264.969L10.4028 265.648L10.4095 265.655L11.1371 264.969ZM10.782 257.938L9.9781 257.343L9.97427 257.348L10.782 257.938ZM13.6371 255.707L13.2303 254.794L13.2276 254.795L13.6371 255.707ZM22.8416 256.318L22.2319 257.111L22.2348 257.113L22.8416 256.318ZM25.2113 259.106L22.2 259.958L22.7446 261.883L25.756 261.03L25.2113 259.106ZM23.4079 260.567C23.179 259.961 22.8467 259.386 22.4227 258.842L20.8457 260.072C21.1604 260.476 21.3868 260.876 21.5367 261.274L23.4079 260.567ZM22.4361 258.86C21.969 258.233 21.3466 257.741 20.6042 257.37L19.7097 259.159C20.2174 259.412 20.5798 259.716 20.8323 260.055L22.4361 258.86ZM20.6042 257.37C19.7965 256.966 18.8292 256.795 17.7564 256.795V258.795C18.6343 258.795 19.2674 258.937 19.7097 259.159L20.6042 257.37ZM17.7564 256.795C16.2659 256.795 14.9424 257.141 13.8496 257.896L14.9871 259.541C15.6745 259.066 16.5764 258.795 17.7564 258.795V256.795ZM13.8514 257.895C12.7438 258.657 12.0973 259.717 12.0973 261.034H14.0973C14.0973 260.476 14.3315 259.992 14.9852 259.543L13.8514 257.895ZM12.0973 261.034C12.0973 262.146 12.5192 263.102 13.3832 263.791L14.6296 262.226C14.2815 261.949 14.0973 261.589 14.0973 261.034H12.0973ZM13.3832 263.791C14.1541 264.405 15.2634 264.851 16.6048 265.186L17.0898 263.246C15.8555 262.937 15.0709 262.578 14.6296 262.226L13.3832 263.791ZM16.6088 265.187L19.8474 265.983L20.3245 264.04L17.0858 263.245L16.6088 265.187ZM19.8501 265.983C21.6993 266.432 22.9549 267.092 23.7327 267.885L25.1607 266.485C24.0257 265.327 22.3741 264.538 20.3218 264.04L19.8501 265.983ZM23.7362 267.888C24.484 268.643 24.8814 269.624 24.8814 270.92H26.8814C26.8814 269.167 26.3224 267.658 25.1573 266.481L23.7362 267.888ZM24.8814 270.92C24.8814 271.964 24.5857 272.874 23.9945 273.683L25.6092 274.863C26.4574 273.702 26.8814 272.377 26.8814 270.92H24.8814ZM23.9908 273.688C23.3989 274.508 22.5544 275.181 21.4128 275.688L22.225 277.516C23.6402 276.887 24.7843 276.007 25.6129 274.858L23.9908 273.688ZM21.4128 275.688C20.2863 276.189 18.9428 276.455 17.3587 276.455V278.455C19.1647 278.455 20.7947 278.152 22.225 277.516L21.4128 275.688ZM17.3587 276.455C15.2765 276.455 13.6405 276.003 12.3853 275.172L11.2809 276.839C12.9423 277.94 14.9901 278.455 17.3587 278.455V276.455ZM12.3853 275.172C11.1659 274.364 10.3814 273.19 10.042 271.568L8.0844 271.977C8.52156 274.067 9.58362 275.715 11.2809 276.839L12.3853 275.172ZM9.30575 272.743L12.4876 271.947L12.0025 270.007L8.82067 270.803L9.30575 272.743ZM11.2768 271.227C11.6282 272.589 12.3189 273.692 13.3922 274.44L14.5354 272.799C13.9231 272.372 13.4679 271.714 13.2133 270.727L11.2768 271.227ZM13.3965 274.443C14.4623 275.177 15.7914 275.5 17.3018 275.5V273.5C16.0661 273.5 15.1698 273.236 14.5311 272.796L13.3965 274.443ZM17.3018 275.5C18.9966 275.5 20.4659 275.141 21.6086 274.317L20.4383 272.695C19.7439 273.196 18.7321 273.5 17.3018 273.5V275.5ZM21.6101 274.315C22.7328 273.502 23.4155 272.422 23.4155 271.091H21.4155C21.4155 271.635 21.1701 272.165 20.4367 272.696L21.6101 274.315ZM23.4155 271.091C23.4155 270.07 23.0461 269.173 22.3142 268.468L20.9259 269.907C21.2546 270.224 21.4155 270.596 21.4155 271.091H23.4155ZM22.3207 268.474C21.6083 267.774 20.5952 267.326 19.4035 267.049L18.9501 268.997C19.9554 269.231 20.5712 269.559 20.9193 269.901L22.3207 268.474ZM19.405 267.049L15.7687 266.197L15.3123 268.144L18.9487 268.996L19.405 267.049ZM15.7711 266.197C13.8736 265.748 12.6165 265.08 11.8647 264.283L10.4095 265.655C11.5326 266.846 13.2111 267.646 15.3099 268.144L15.7711 266.197ZM11.8713 264.29C11.1321 263.49 10.745 262.486 10.745 261.205H8.74503C8.74503 262.934 9.28602 264.44 10.4028 265.648L11.8713 264.29ZM10.745 261.205C10.745 260.174 11.0298 259.294 11.5896 258.527L9.97427 257.348C9.15152 258.475 8.74503 259.773 8.74503 261.205H10.745ZM11.5858 258.532C12.1728 257.739 12.9814 257.098 14.0465 256.62L13.2276 254.795C11.8874 255.397 10.7926 256.242 9.97812 257.343L11.5858 258.532ZM14.0439 256.621C15.1095 256.146 16.3407 255.898 17.7564 255.898V253.898C16.1039 253.898 14.5889 254.189 13.2303 254.794L14.0439 256.621ZM17.7564 255.898C19.7794 255.898 21.2325 256.342 22.2319 257.111L23.4513 255.526C21.9886 254.4 20.0516 253.898 17.7564 253.898V255.898ZM22.2348 257.113C23.3084 257.933 24.075 259.013 24.5356 260.386L26.4318 259.75C25.8507 258.018 24.8559 256.598 23.4484 255.523L22.2348 257.113ZM38.2798 277V278H39.2798V277H38.2798ZM34.9276 277H33.9276V278H34.9276V277ZM34.9276 247.909V246.909H33.9276V247.909H34.9276ZM38.2798 247.909H39.2798V246.909H38.2798V247.909ZM38.2798 258.591H37.2798V259.591H38.2798V258.591ZM38.5639 258.591V259.591H39.2083L39.4745 259.004L38.5639 258.591ZM40.8651 255.906L41.409 256.745L41.4109 256.744L40.8651 255.906ZM48.8906 255.793L48.4196 256.675L48.4255 256.678L48.8906 255.793ZM51.4901 258.506L50.597 258.956L50.6013 258.964L51.4901 258.506ZM52.4276 277V278H53.4276V277H52.4276ZM49.0753 277H48.0753V278H49.0753V277ZM47.7259 259.344L46.9938 260.025L47.0009 260.032L47.7259 259.344ZM41.0639 258.605L40.5938 257.722L40.5898 257.725L41.0639 258.605ZM39.0185 260.636L38.1474 260.145L38.1434 260.152L39.0185 260.636ZM37.2798 263.875V277H39.2798V263.875H37.2798ZM38.2798 276H34.9276V278H38.2798V276ZM35.9276 277V247.909H33.9276V277H35.9276ZM34.9276 248.909H38.2798V246.909H34.9276V248.909ZM37.2798 247.909V258.591H39.2798V247.909H37.2798ZM38.2798 259.591H38.5639V257.591H38.2798V259.591ZM39.4745 259.004C39.9082 258.049 40.5493 257.303 41.409 256.745L40.3212 255.067C39.1354 255.836 38.2424 256.88 37.6533 258.178L39.4745 259.004ZM41.4109 256.744C42.2287 256.211 43.3911 255.898 44.9844 255.898V253.898C43.1496 253.898 41.5658 254.256 40.3193 255.068L41.4109 256.744ZM44.9844 255.898C46.3354 255.898 47.4704 256.168 48.4197 256.675L49.3616 254.91C48.076 254.224 46.6068 253.898 44.9844 253.898V255.898ZM48.4255 256.678C49.3428 257.16 50.067 257.904 50.597 258.956L52.3831 258.056C51.682 256.664 50.6733 255.6 49.3558 254.907L48.4255 256.678ZM50.6013 258.964C51.131 259.991 51.4276 261.364 51.4276 263.136H53.4276C53.4276 261.159 53.0991 259.444 52.3789 258.047L50.6013 258.964ZM51.4276 263.136V277H53.4276V263.136H51.4276ZM52.4276 276H49.0753V278H52.4276V276ZM50.0753 277V263.364H48.0753V277H50.0753ZM50.0753 263.364C50.0753 261.46 49.5785 259.842 48.4509 258.655L47.0009 260.032C47.6724 260.739 48.0753 261.801 48.0753 263.364H50.0753ZM48.4579 258.662C47.3395 257.461 45.8145 256.909 44.0185 256.909V258.909C45.3853 258.909 46.3319 259.314 46.9938 260.025L48.4579 258.662ZM44.0185 256.909C42.7748 256.909 41.6255 257.173 40.5938 257.722L41.534 259.488C42.2448 259.109 43.0651 258.909 44.0185 258.909V256.909ZM40.5898 257.725C39.5541 258.282 38.7378 259.098 38.1474 260.145L39.8895 261.128C40.3029 260.394 40.8503 259.856 41.538 259.486L40.5898 257.725ZM38.1434 260.152C37.5511 261.223 37.2798 262.478 37.2798 263.875H39.2798C39.2798 262.734 39.5009 261.83 39.8935 261.12L38.1434 260.152ZM66.2393 276.048L65.7035 276.893L65.706 276.894L66.2393 276.048ZM62.7734 272.114L61.875 272.553L61.877 272.557L62.7734 272.114ZM62.7734 260.253L61.876 259.812L61.874 259.816L62.7734 260.253ZM66.2393 256.304L65.706 255.458L65.7035 255.46L66.2393 256.304ZM76.5945 256.304L76.0586 257.148L76.0611 257.15L76.5945 256.304ZM80.0604 260.253L79.161 260.69L79.163 260.694L80.0604 260.253ZM80.0604 272.114L79.1639 271.67L79.1619 271.675L80.0604 272.114ZM76.5945 276.048L76.0611 275.202L76.0586 275.204L76.5945 276.048ZM75.1172 273.293L74.4953 272.51L75.1172 273.293ZM77.2621 270.267L78.1996 270.615V270.615L77.2621 270.267ZM77.2621 262.128L78.2004 261.782L77.2621 262.128ZM75.1172 259.074L75.7437 258.294L75.1172 259.074ZM67.7308 259.074L67.1043 258.294L67.7308 259.074ZM65.5859 262.128L64.6476 261.782H64.6476L65.5859 262.128ZM65.5859 270.267L64.6484 270.615V270.615L65.5859 270.267ZM67.7308 273.293L68.3527 272.51L67.7308 273.293ZM71.424 276.455C69.6196 276.455 68.081 276.027 66.7727 275.202L65.706 276.894C67.3711 277.944 69.289 278.455 71.424 278.455V276.455ZM66.7752 275.204C65.4642 274.372 64.4283 273.205 63.6699 271.67L61.877 272.557C62.7852 274.394 64.06 275.85 65.7035 276.893L66.7752 275.204ZM63.6719 271.675C62.927 270.15 62.5376 268.336 62.5376 266.205H60.5376C60.5376 268.58 60.9722 270.706 61.875 272.553L63.6719 271.675ZM62.5376 266.205C62.5376 264.053 62.9274 262.224 63.6728 260.69L61.874 259.816C60.9717 261.672 60.5376 263.811 60.5376 266.205H62.5376ZM63.6709 260.694C64.4297 259.15 65.4656 257.979 66.7752 257.148L65.7035 255.46C64.0586 256.504 62.7838 257.965 61.876 259.812L63.6709 260.694ZM66.7727 257.15C68.081 256.325 69.6196 255.898 71.424 255.898V253.898C69.289 253.898 67.3711 254.408 65.706 255.458L66.7727 257.15ZM71.424 255.898C73.2285 255.898 74.7611 256.325 76.0586 257.148L77.1303 255.46C75.4732 254.408 73.5589 253.898 71.424 253.898V255.898ZM76.0611 257.15C77.3786 257.981 78.4125 259.15 79.161 260.69L80.9598 259.816C80.0605 257.966 78.7838 256.502 77.1278 255.458L76.0611 257.15ZM79.163 260.694C79.9164 262.227 80.3104 264.054 80.3104 266.205H82.3104C82.3104 263.81 81.871 261.669 80.9578 259.812L79.163 260.694ZM80.3104 266.205C80.3104 268.335 79.9169 270.147 79.1639 271.67L80.9568 272.557C81.8705 270.709 82.3104 268.582 82.3104 266.205H80.3104ZM79.1619 271.675C78.4139 273.205 77.38 274.371 76.0611 275.202L77.1278 276.894C78.7824 275.851 80.0591 274.393 80.9588 272.553L79.1619 271.675ZM76.0586 275.204C74.7611 276.027 73.2285 276.455 71.424 276.455V278.455C73.5589 278.455 75.4732 277.944 77.1303 276.893L76.0586 275.204ZM71.424 275.443C73.0964 275.443 74.561 275.011 75.7391 274.076L74.4953 272.51C73.7416 273.108 72.744 273.443 71.424 273.443V275.443ZM75.7391 274.076C76.8595 273.186 77.6774 272.022 78.1996 270.615L76.3246 269.919C75.9188 271.012 75.3067 271.865 74.4953 272.51L75.7391 274.076ZM78.1996 270.615C78.7086 269.244 78.9581 267.771 78.9581 266.205H76.9581C76.9581 267.555 76.7436 268.79 76.3246 269.919L78.1996 270.615ZM78.9581 266.205C78.9581 264.638 78.7086 263.162 78.2004 261.782L76.3237 262.474C76.7436 263.613 76.9581 264.854 76.9581 266.205H78.9581ZM78.2004 261.782C77.6791 260.367 76.8626 259.194 75.7437 258.294L74.4906 259.853C75.3035 260.507 75.917 261.37 76.3237 262.474L78.2004 261.782ZM75.7437 258.294C74.5655 257.347 73.0992 256.909 71.424 256.909V258.909C72.7412 258.909 73.737 259.247 74.4906 259.853L75.7437 258.294ZM71.424 256.909C69.7488 256.909 68.2825 257.347 67.1043 258.294L68.3574 259.853C69.111 259.247 70.1068 258.909 71.424 258.909V256.909ZM67.1043 258.294C65.9854 259.194 65.1689 260.367 64.6476 261.782L66.5243 262.474C66.931 261.37 67.5445 260.507 68.3574 259.853L67.1043 258.294ZM64.6476 261.782C64.1394 263.162 63.8899 264.638 63.8899 266.205H65.8899C65.8899 264.854 66.1044 263.613 66.5243 262.474L64.6476 261.782ZM63.8899 266.205C63.8899 267.771 64.1394 269.244 64.6484 270.615L66.5234 269.919C66.1045 268.79 65.8899 267.555 65.8899 266.205H63.8899ZM64.6484 270.615C65.1706 272.022 65.9885 273.186 67.1089 274.076L68.3527 272.51C67.5413 271.865 66.9293 271.012 66.5234 269.919L64.6484 270.615ZM67.1089 274.076C68.287 275.011 69.7516 275.443 71.424 275.443V273.443C70.104 273.443 69.1064 273.108 68.3527 272.51L67.1089 274.076ZM90.4276 285.182H89.4276V286.182H90.4276V285.182ZM90.4276 255.182V254.182H89.4276V255.182H90.4276ZM93.6662 255.182H94.6662V254.182H93.6662V255.182ZM93.6662 258.648H92.6662V259.648H93.6662V258.648ZM94.0639 258.648V259.648H94.6066L94.9024 259.193L94.0639 258.648ZM95.0866 257.199L94.2851 256.601L94.2835 256.603L95.0866 257.199ZM96.9901 255.608L97.4808 256.479L97.4841 256.477L96.9901 255.608ZM105.229 256.276L105.777 255.439L105.229 256.276ZM108.51 260.182L109.416 259.759L108.51 260.182ZM108.51 272.156L109.416 272.579L109.417 272.577L108.51 272.156ZM105.243 276.077L105.794 276.911L105.798 276.909L105.243 276.077ZM97.0611 276.759L96.5713 277.63L96.5788 277.635L97.0611 276.759ZM95.1151 275.153L94.315 275.753L94.3196 275.759L95.1151 275.153ZM94.0639 273.648L94.9142 273.121L94.621 272.648H94.0639V273.648ZM93.7798 273.648V272.648H92.7798V273.648H93.7798ZM93.7798 285.182V286.182H94.7798V285.182H93.7798ZM94.4474 270.452L93.5137 270.81L93.5146 270.812L94.4474 270.452ZM96.5639 273.392L95.9562 274.186L95.9613 274.19L96.5639 273.392ZM103.482 273.335L104.1 274.121L104.101 274.12L103.482 273.335ZM105.612 270.324L104.678 269.968L104.676 269.972L105.612 270.324ZM105.626 261.943L104.69 262.294L104.693 262.302L105.626 261.943ZM103.51 259.003L102.896 259.792L102.905 259.799L103.51 259.003ZM96.5355 258.946L97.1276 259.752L97.1329 259.748L96.5355 258.946ZM94.4332 261.815L95.3657 262.177L95.3666 262.174L94.4332 261.815ZM91.4276 285.182V255.182H89.4276V285.182H91.4276ZM90.4276 256.182H93.6662V254.182H90.4276V256.182ZM92.6662 255.182V258.648H94.6662V255.182H92.6662ZM93.6662 259.648H94.0639V257.648H93.6662V259.648ZM94.9024 259.193C95.1326 258.838 95.4599 258.374 95.8897 257.795L94.2835 256.603C93.8421 257.198 93.4876 257.699 93.2255 258.103L94.9024 259.193ZM95.8882 257.797C96.2306 257.338 96.7468 256.893 97.4808 256.479L96.4993 254.737C95.5856 255.251 94.8329 255.867 94.2851 256.601L95.8882 257.797ZM97.4841 256.477C98.1113 256.121 99.0459 255.898 100.371 255.898V253.898C98.8546 253.898 97.5355 254.148 96.496 254.738L97.4841 256.477ZM100.371 255.898C102.033 255.898 103.457 256.31 104.681 257.112L105.777 255.439C104.197 254.404 102.383 253.898 100.371 253.898V255.898ZM104.681 257.112C105.91 257.918 106.887 259.068 107.604 260.604L109.416 259.759C108.561 257.924 107.351 256.471 105.777 255.439L104.681 257.112ZM107.604 260.604C108.315 262.131 108.689 263.969 108.689 266.148H110.689C110.689 263.743 110.277 261.604 109.416 259.759L107.604 260.604ZM108.689 266.148C108.689 268.347 108.315 270.2 107.603 271.736L109.417 272.577C110.277 270.723 110.689 268.57 110.689 266.148H108.689ZM107.604 271.734C106.886 273.272 105.911 274.429 104.688 275.245L105.798 276.909C107.359 275.868 108.562 274.412 109.416 272.579L107.604 271.734ZM104.692 275.242C103.478 276.043 102.068 276.455 100.428 276.455V278.455C102.423 278.455 104.223 277.947 105.794 276.911L104.692 275.242ZM100.428 276.455C99.1229 276.455 98.1862 276.236 97.5434 275.883L96.5788 277.635C97.6216 278.209 98.9292 278.455 100.428 278.455V276.455ZM97.5509 275.887C96.7941 275.462 96.2622 275.009 95.9105 274.547L94.3196 275.759C94.877 276.491 95.6425 277.109 96.5713 277.63L97.5509 275.887ZM95.9151 274.553C95.4689 273.959 95.1382 273.483 94.9142 273.121L93.2137 274.174C93.4821 274.608 93.8521 275.136 94.3151 275.753L95.9151 274.553ZM94.0639 272.648H93.7798V274.648H94.0639V272.648ZM92.7798 273.648V285.182H94.7798V273.648H92.7798ZM93.7798 284.182H90.4276V286.182H93.7798V284.182ZM92.723 266.091C92.723 267.835 92.9784 269.414 93.5137 270.81L95.3811 270.094C94.9505 268.971 94.723 267.643 94.723 266.091H92.723ZM93.5146 270.812C94.054 272.208 94.8615 273.348 95.9562 274.186L97.1717 272.598C96.4103 272.015 95.8068 271.195 95.3802 270.091L93.5146 270.812ZM95.9613 274.19C97.0892 275.042 98.4462 275.443 99.973 275.443V273.443C98.8104 273.443 97.8947 273.144 97.1665 272.594L95.9613 274.19ZM99.973 275.443C101.558 275.443 102.957 275.022 104.1 274.121L102.863 272.55C102.131 273.126 101.191 273.443 99.973 273.443V275.443ZM104.101 274.12C105.207 273.246 106.018 272.085 106.548 270.676L104.676 269.972C104.259 271.081 103.65 271.928 102.862 272.551L104.101 274.12ZM106.547 270.68C107.079 269.282 107.337 267.748 107.337 266.091H105.337C105.337 267.54 105.112 268.828 104.678 269.968L106.547 270.68ZM107.337 266.091C107.337 264.454 107.084 262.947 106.56 261.584L104.693 262.302C105.116 263.402 105.337 264.66 105.337 266.091H107.337ZM106.563 261.593C106.041 260.196 105.229 259.053 104.115 258.207L102.905 259.799C103.685 260.392 104.284 261.209 104.69 262.294L106.563 261.593ZM104.124 258.213C102.978 257.322 101.571 256.909 99.973 256.909V258.909C101.216 258.909 102.167 259.225 102.896 259.792L104.124 258.213ZM99.973 256.909C98.4338 256.909 97.0681 257.302 95.9381 258.144L97.1329 259.748C97.859 259.207 98.7849 258.909 99.973 258.909V256.909ZM95.9434 258.14C94.8398 258.951 94.0318 260.073 93.4999 261.456L95.3666 262.174C95.7816 261.095 96.3752 260.305 97.1276 259.752L95.9434 258.14ZM93.5008 261.454C92.9733 262.815 92.723 264.368 92.723 266.091H94.723C94.723 264.557 94.9462 263.259 95.3656 262.177L93.5008 261.454ZM118.803 285.182H117.803V286.182H118.803V285.182ZM118.803 255.182V254.182H117.803V255.182H118.803ZM122.041 255.182H123.041V254.182H122.041V255.182ZM122.041 258.648H121.041V259.648H122.041V258.648ZM122.439 258.648V259.648H122.982L123.277 259.193L122.439 258.648ZM123.462 257.199L122.66 256.601L122.659 256.603L123.462 257.199ZM125.365 255.608L125.856 256.479L125.859 256.477L125.365 255.608ZM133.604 256.276L134.152 255.439L133.604 256.276ZM136.885 260.182L137.791 259.759L136.885 260.182ZM136.885 272.156L137.791 272.579L137.792 272.577L136.885 272.156ZM133.618 276.077L134.169 276.911L134.173 276.909L133.618 276.077ZM125.436 276.759L124.946 277.63L124.954 277.635L125.436 276.759ZM123.49 275.153L122.69 275.753L122.695 275.759L123.49 275.153ZM122.439 273.648L123.289 273.121L122.996 272.648H122.439V273.648ZM122.155 273.648V272.648H121.155V273.648H122.155ZM122.155 285.182V286.182H123.155V285.182H122.155ZM122.822 270.452L121.889 270.81L121.89 270.812L122.822 270.452ZM124.939 273.392L124.331 274.186L124.336 274.19L124.939 273.392ZM131.857 273.335L132.475 274.121L132.476 274.12L131.857 273.335ZM133.987 270.324L133.053 269.968L133.051 269.972L133.987 270.324ZM134.001 261.943L133.065 262.294L133.068 262.302L134.001 261.943ZM131.885 259.003L131.271 259.792L131.28 259.799L131.885 259.003ZM124.911 258.946L125.503 259.752L125.508 259.748L124.911 258.946ZM122.808 261.815L123.741 262.177L123.742 262.174L122.808 261.815ZM119.803 285.182V255.182H117.803V285.182H119.803ZM118.803 256.182H122.041V254.182H118.803V256.182ZM121.041 255.182V258.648H123.041V255.182H121.041ZM122.041 259.648H122.439V257.648H122.041V259.648ZM123.277 259.193C123.508 258.838 123.835 258.374 124.265 257.795L122.659 256.603C122.217 257.198 121.863 257.699 121.6 258.103L123.277 259.193ZM124.263 257.797C124.606 257.338 125.122 256.893 125.856 256.479L124.874 254.737C123.961 255.251 123.208 255.867 122.66 256.601L124.263 257.797ZM125.859 256.477C126.486 256.121 127.421 255.898 128.746 255.898V253.898C127.23 253.898 125.91 254.148 124.871 254.738L125.859 256.477ZM128.746 255.898C130.408 255.898 131.833 256.31 133.056 257.112L134.152 255.439C132.572 254.404 130.758 253.898 128.746 253.898V255.898ZM133.056 257.112C134.285 257.918 135.262 259.068 135.979 260.604L137.791 259.759C136.936 257.924 135.726 256.471 134.152 255.439L133.056 257.112ZM135.979 260.604C136.69 262.131 137.064 263.969 137.064 266.148H139.064C139.064 263.743 138.652 261.604 137.791 259.759L135.979 260.604ZM137.064 266.148C137.064 268.347 136.69 270.2 135.978 271.736L137.792 272.577C138.652 270.723 139.064 268.57 139.064 266.148H137.064ZM135.979 271.734C135.261 273.272 134.286 274.429 133.063 275.245L134.173 276.909C135.734 275.868 136.937 274.412 137.791 272.579L135.979 271.734ZM133.067 275.242C131.853 276.043 130.443 276.455 128.803 276.455V278.455C130.798 278.455 132.598 277.947 134.169 276.911L133.067 275.242ZM128.803 276.455C127.498 276.455 126.561 276.236 125.918 275.883L124.954 277.635C125.997 278.209 127.304 278.455 128.803 278.455V276.455ZM125.926 275.887C125.169 275.462 124.637 275.009 124.285 274.547L122.695 275.759C123.252 276.491 124.017 277.109 124.946 277.63L125.926 275.887ZM124.29 274.553C123.844 273.959 123.513 273.483 123.289 273.121L121.589 274.174C121.857 274.608 122.227 275.136 122.69 275.753L124.29 274.553ZM122.439 272.648H122.155V274.648H122.439V272.648ZM121.155 273.648V285.182H123.155V273.648H121.155ZM122.155 284.182H118.803V286.182H122.155V284.182ZM121.098 266.091C121.098 267.835 121.353 269.414 121.889 270.81L123.756 270.094C123.326 268.971 123.098 267.643 123.098 266.091H121.098ZM121.89 270.812C122.429 272.208 123.236 273.348 124.331 274.186L125.547 272.598C124.785 272.015 124.182 271.195 123.755 270.091L121.89 270.812ZM124.336 274.19C125.464 275.042 126.821 275.443 128.348 275.443V273.443C127.185 273.443 126.27 273.144 125.542 272.594L124.336 274.19ZM128.348 275.443C129.933 275.443 131.332 275.022 132.475 274.121L131.238 272.55C130.506 273.126 129.566 273.443 128.348 273.443V275.443ZM132.476 274.12C133.582 273.246 134.393 272.085 134.923 270.676L133.051 269.972C132.634 271.081 132.025 271.928 131.237 272.551L132.476 274.12ZM134.922 270.68C135.454 269.282 135.712 267.748 135.712 266.091H133.712C133.712 267.54 133.487 268.828 133.053 269.968L134.922 270.68ZM135.712 266.091C135.712 264.454 135.459 262.947 134.935 261.584L133.068 262.302C133.491 263.402 133.712 264.66 133.712 266.091H135.712ZM134.938 261.593C134.416 260.196 133.604 259.053 132.49 258.207L131.28 259.799C132.06 260.392 132.659 261.209 133.065 262.294L134.938 261.593ZM132.499 258.213C131.353 257.322 129.946 256.909 128.348 256.909V258.909C129.591 258.909 130.542 259.225 131.271 259.792L132.499 258.213ZM128.348 256.909C126.809 256.909 125.443 257.302 124.313 258.144L125.508 259.748C126.234 259.207 127.16 258.909 128.348 258.909V256.909ZM124.318 258.14C123.215 258.951 122.407 260.073 121.875 261.456L123.742 262.174C124.157 261.095 124.75 260.305 125.503 259.752L124.318 258.14ZM121.876 261.454C121.348 262.815 121.098 264.368 121.098 266.091H123.098C123.098 264.557 123.321 263.259 123.741 262.177L121.876 261.454ZM147.178 277H146.178V278H147.178V277ZM147.178 255.182V254.182H146.178V255.182H147.178ZM150.53 255.182H151.53V254.182H150.53V255.182ZM150.53 277V278H151.53V277H150.53ZM147.192 250.878L146.499 251.6L146.507 251.606L147.192 250.878ZM147.192 247.668L146.507 246.939L146.5 246.946L147.192 247.668ZM150.558 247.668L149.866 248.389L149.873 248.396L150.558 247.668ZM150.558 250.878L149.873 250.149L149.866 250.156L150.558 250.878ZM148.178 277V255.182H146.178V277H148.178ZM147.178 256.182H150.53V254.182H147.178V256.182ZM149.53 255.182V277H151.53V255.182H149.53ZM150.53 276H147.178V278H150.53V276ZM148.882 250.545C148.482 250.545 148.164 250.419 147.877 250.149L146.507 251.606C147.167 252.227 147.976 252.545 148.882 252.545V250.545ZM147.884 250.156C147.61 249.894 147.496 249.617 147.496 249.273H145.496C145.496 250.179 145.845 250.972 146.5 251.6L147.884 250.156ZM147.496 249.273C147.496 248.929 147.61 248.652 147.884 248.389L146.5 246.946C145.845 247.573 145.496 248.367 145.496 249.273H147.496ZM147.877 248.396C148.164 248.127 148.482 248 148.882 248V246C147.976 246 147.167 246.319 146.507 246.939L147.877 248.396ZM148.882 248C149.282 248 149.592 248.126 149.866 248.389L151.25 246.946C150.597 246.319 149.789 246 148.882 246V248ZM149.873 248.396C150.155 248.661 150.268 248.936 150.268 249.273H152.268C152.268 248.36 151.909 247.565 151.243 246.939L149.873 248.396ZM150.268 249.273C150.268 249.61 150.155 249.885 149.873 250.149L151.243 251.606C151.909 250.981 152.268 250.186 152.268 249.273H150.268ZM149.866 250.156C149.592 250.419 149.282 250.545 148.882 250.545V252.545C149.789 252.545 150.597 252.226 151.25 251.6L149.866 250.156ZM164.022 277V278H165.022V277H164.022ZM160.67 277H159.67V278H160.67V277ZM160.67 255.182V254.182H159.67V255.182H160.67ZM163.908 255.182H164.908V254.182H163.908V255.182ZM163.908 258.591H162.908V259.591H163.908V258.591ZM164.192 258.591V259.591H164.832L165.1 259.01L164.192 258.591ZM166.522 255.92L167.064 256.761L167.07 256.757L166.522 255.92ZM174.434 255.807L173.954 256.684L173.96 256.687L174.434 255.807ZM177.019 258.534L176.126 258.984L176.128 258.987L177.019 258.534ZM177.942 277V278H178.942V277H177.942ZM174.59 277H173.59V278H174.59V277ZM173.255 259.358L172.52 260.036L172.523 260.039L173.255 259.358ZM166.721 258.605L166.239 257.729L166.234 257.731L166.721 258.605ZM164.746 260.636L163.867 260.159L164.746 260.636ZM163.022 263.875V277H165.022V263.875H163.022ZM164.022 276H160.67V278H164.022V276ZM161.67 277V255.182H159.67V277H161.67ZM160.67 256.182H163.908V254.182H160.67V256.182ZM162.908 255.182V258.591H164.908V255.182H162.908ZM163.908 259.591H164.192V257.591H163.908V259.591ZM165.1 259.01C165.531 258.077 166.179 257.332 167.064 256.761L165.98 255.08C164.781 255.854 163.877 256.889 163.285 258.172L165.1 259.01ZM167.07 256.757C167.904 256.211 169.041 255.898 170.556 255.898V253.898C168.776 253.898 167.224 254.266 165.974 255.084L167.07 256.757ZM170.556 255.898C171.894 255.898 173.016 256.171 173.954 256.684L174.914 254.929C173.636 254.23 172.173 253.898 170.556 253.898V255.898ZM173.96 256.687C174.872 257.178 175.594 257.929 176.126 258.984L177.912 258.084C177.213 256.696 176.212 255.629 174.908 254.926L173.96 256.687ZM176.128 258.987C176.651 260.017 176.942 261.383 176.942 263.136H178.942C178.942 261.178 178.619 259.475 177.911 258.081L176.128 258.987ZM176.942 263.136V277H178.942V263.136H176.942ZM177.942 276H174.59V278H177.942V276ZM175.59 277V263.364H173.59V277H175.59ZM175.59 263.364C175.59 261.478 175.098 259.87 173.987 258.677L172.523 260.039C173.193 260.759 173.59 261.821 173.59 263.364H175.59ZM173.99 258.68C172.876 257.471 171.367 256.909 169.59 256.909V258.909C170.919 258.909 171.853 259.313 172.52 260.036L173.99 258.68ZM169.59 256.909C168.371 256.909 167.245 257.175 166.239 257.729L167.203 259.481C167.882 259.107 168.669 258.909 169.59 258.909V256.909ZM166.234 257.731C165.225 258.294 164.435 259.113 163.867 260.159L165.625 261.113C166.024 260.379 166.55 259.845 167.207 259.479L166.234 257.731ZM163.867 260.159C163.287 261.229 163.022 262.481 163.022 263.875H165.022C165.022 262.731 165.24 261.824 165.625 261.113L163.867 260.159ZM192.699 285.011L193.036 284.07L193.029 284.067L192.699 285.011ZM189.787 283.392L190.442 282.636L190.441 282.635L189.787 283.392ZM187.955 281.261L187.38 280.443L186.618 280.978L187.097 281.776L187.955 281.261ZM190.625 279.386L191.42 278.78L190.838 278.015L190.05 278.568L190.625 279.386ZM191.776 280.75L192.522 280.085L192.516 280.078L191.776 280.75ZM193.679 282.099L194.109 281.197L194.105 281.195L193.679 282.099ZM201.236 281.403L201.833 282.206L201.236 281.403ZM202.955 272.966H203.955V271.966H202.955V272.966ZM202.67 272.966V271.966H202.113L201.82 272.44L202.67 272.966ZM201.619 274.443L200.829 273.831L200.827 273.833L201.619 274.443ZM199.688 275.991L200.159 276.874L200.162 276.872L199.688 275.991ZM191.562 275.409L191.049 276.267L191.051 276.269L191.562 275.409ZM188.253 271.773L187.361 272.224L187.363 272.228L188.253 271.773ZM188.224 260.139L189.128 260.568L189.129 260.566L188.224 260.139ZM191.506 256.276L192.05 257.115L192.054 257.112L191.506 256.276ZM199.744 255.608L199.25 256.477L199.262 256.484L199.744 255.608ZM201.676 257.199L200.875 257.797L200.88 257.804L200.885 257.811L201.676 257.199ZM202.727 258.648L201.889 259.193L202.185 259.648H202.727V258.648ZM203.068 258.648V259.648H204.068V258.648H203.068ZM203.068 255.182V254.182H202.068V255.182H203.068ZM206.307 255.182H207.307V254.182H206.307V255.182ZM205.028 282.199L204.219 281.611L204.214 281.619L205.028 282.199ZM201.619 284.798L201.261 283.865L201.253 283.868L201.619 284.798ZM200.17 272.724L199.618 271.891L200.17 272.724ZM202.287 270.068L203.21 270.454V270.454L202.287 270.068ZM202.301 261.759L203.232 261.392L202.301 261.759ZM200.199 258.932L199.607 259.738L200.199 258.932ZM193.21 258.989L192.605 258.192L192.601 258.195L193.21 258.989ZM191.094 261.886L190.162 261.523L190.16 261.529L191.094 261.886ZM191.108 269.94L190.182 270.317L190.185 270.326L191.108 269.94ZM193.239 272.668L192.661 273.484L192.671 273.491L193.239 272.668ZM196.875 284.636C195.337 284.636 194.065 284.438 193.036 284.07L192.362 285.953C193.662 286.418 195.174 286.636 196.875 286.636V284.636ZM193.029 284.067C191.96 283.694 191.106 283.211 190.442 282.636L189.132 284.148C190.021 284.918 191.108 285.515 192.369 285.955L193.029 284.067ZM190.441 282.635C189.742 282.032 189.205 281.401 188.812 280.747L187.097 281.776C187.614 282.637 188.297 283.426 189.133 284.149L190.441 282.635ZM188.529 282.08L191.2 280.205L190.05 278.568L187.38 280.443L188.529 282.08ZM189.83 279.992C190.155 280.42 190.558 280.897 191.035 281.422L192.516 280.078C192.065 279.581 191.701 279.149 191.42 278.78L189.83 279.992ZM191.029 281.415C191.604 282.06 192.359 282.583 193.253 283.004L194.105 281.195C193.39 280.858 192.876 280.481 192.522 280.085L191.029 281.415ZM193.249 283.002C194.245 283.477 195.473 283.682 196.875 283.682V281.682C195.645 281.682 194.742 281.498 194.109 281.197L193.249 283.002ZM196.875 283.682C198.8 283.682 200.477 283.214 201.833 282.206L200.639 280.601C199.703 281.298 198.472 281.682 196.875 281.682V283.682ZM201.833 282.206C203.3 281.114 203.955 279.437 203.955 277.398H201.955C201.955 278.995 201.463 279.988 200.639 280.601L201.833 282.206ZM203.955 277.398V272.966H201.955V277.398H203.955ZM202.955 271.966H202.67V273.966H202.955V271.966ZM201.82 272.44C201.6 272.796 201.273 273.257 200.829 273.831L202.41 275.055C202.875 274.455 203.249 273.932 203.521 273.492L201.82 272.44ZM200.827 273.833C200.49 274.27 199.969 274.704 199.213 275.111L200.162 276.872C201.092 276.37 201.858 275.771 202.411 275.054L200.827 273.833ZM199.216 275.109C198.583 275.448 197.639 275.659 196.307 275.659V277.659C197.816 277.659 199.125 277.425 200.159 276.874L199.216 275.109ZM196.307 275.659C194.71 275.659 193.308 275.284 192.074 274.55L191.051 276.269C192.62 277.201 194.381 277.659 196.307 277.659V275.659ZM192.076 274.551C190.861 273.824 189.881 272.759 189.143 271.317L187.363 272.228C188.253 273.969 189.48 275.328 191.049 276.267L192.076 274.551ZM189.145 271.321C188.428 269.903 188.045 268.135 188.045 265.977H186.045C186.045 268.365 186.468 270.46 187.361 272.224L189.145 271.321ZM188.045 265.977C188.045 263.859 188.418 262.065 189.128 260.568L187.321 259.711C186.459 261.528 186.045 263.626 186.045 265.977H188.045ZM189.129 260.566C189.844 259.049 190.82 257.912 192.05 257.115L190.961 255.437C189.388 256.457 188.177 257.896 187.32 259.713L189.129 260.566ZM192.054 257.112C193.277 256.31 194.702 255.898 196.364 255.898V253.898C194.351 253.898 192.538 254.404 190.958 255.439L192.054 257.112ZM196.364 255.898C197.688 255.898 198.623 256.121 199.25 256.477L200.238 254.738C199.199 254.148 197.88 253.898 196.364 253.898V255.898ZM199.262 256.484C200.015 256.898 200.536 257.343 200.875 257.797L202.478 256.601C201.926 255.862 201.159 255.245 200.227 254.732L199.262 256.484ZM200.885 257.811C201.332 258.388 201.664 258.847 201.889 259.193L203.566 258.103C203.298 257.691 202.929 257.184 202.467 256.587L200.885 257.811ZM202.727 259.648H203.068V257.648H202.727V259.648ZM204.068 258.648V255.182H202.068V258.648H204.068ZM203.068 256.182H206.307V254.182H203.068V256.182ZM205.307 255.182V277.625H207.307V255.182H205.307ZM205.307 277.625C205.307 279.351 204.916 280.652 204.219 281.611L205.838 282.786C206.846 281.397 207.307 279.649 207.307 277.625H205.307ZM204.214 281.619C203.491 282.634 202.518 283.382 201.261 283.865L201.978 285.732C203.581 285.116 204.88 284.132 205.843 282.779L204.214 281.619ZM201.253 283.868C199.965 284.375 198.51 284.636 196.875 284.636V286.636C198.725 286.636 200.433 286.339 201.985 285.729L201.253 283.868ZM196.761 274.648C198.261 274.648 199.6 274.303 200.723 273.558L199.618 271.891C198.885 272.377 197.951 272.648 196.761 272.648V274.648ZM200.723 273.558C201.836 272.82 202.66 271.768 203.21 270.454L201.364 269.682C200.948 270.679 200.361 271.398 199.618 271.891L200.723 273.558ZM203.21 270.454C203.756 269.147 204.011 267.627 204.011 265.92H202.011C202.011 267.434 201.784 268.679 201.364 269.682L203.21 270.454ZM204.011 265.92C204.011 264.249 203.76 262.734 203.232 261.392L201.371 262.125C201.789 263.189 202.011 264.448 202.011 265.92H204.011ZM203.232 261.392C202.698 260.036 201.889 258.933 200.791 258.126L199.607 259.738C200.365 260.295 200.958 261.076 201.371 262.125L203.232 261.392ZM200.791 258.126C199.661 257.296 198.298 256.909 196.761 256.909V258.909C197.952 258.909 198.88 259.204 199.607 259.738L200.791 258.126ZM196.761 256.909C195.166 256.909 193.758 257.316 192.605 258.192L193.815 259.785C194.556 259.222 195.516 258.909 196.761 258.909V256.909ZM192.601 258.195C191.505 259.037 190.695 260.158 190.162 261.523L192.025 262.25C192.439 261.19 193.041 260.379 193.819 259.782L192.601 258.195ZM190.16 261.529C189.647 262.87 189.398 264.338 189.398 265.92H191.398C191.398 264.549 191.613 263.327 192.028 262.244L190.16 261.529ZM189.398 265.92C189.398 267.539 189.651 269.011 190.182 270.317L192.034 269.564C191.618 268.54 191.398 267.332 191.398 265.92H189.398ZM190.185 270.326C190.734 271.638 191.557 272.703 192.661 273.484L193.816 271.851C193.046 271.306 192.448 270.553 192.031 269.555L190.185 270.326ZM192.671 273.491C193.818 274.282 195.202 274.648 196.761 274.648V272.648C195.518 272.648 194.553 272.36 193.807 271.845L192.671 273.491ZM235.045 247.909H236.045V246.909H235.045V247.909ZM235.045 277V278H236.045V277H235.045ZM231.693 277H230.693V278H231.693V277ZM231.693 247.909V246.909H230.693V247.909H231.693ZM234.045 247.909V277H236.045V247.909H234.045ZM235.045 276H231.693V278H235.045V276ZM232.693 277V247.909H230.693V277H232.693ZM231.693 248.909H235.045V246.909H231.693V248.909ZM245.185 277H244.185V278H245.185V277ZM245.185 255.182V254.182H244.185V255.182H245.185ZM248.538 255.182H249.538V254.182H248.538V255.182ZM248.538 277V278H249.538V277H248.538ZM245.2 250.878L244.507 251.6L244.515 251.606L245.2 250.878ZM245.2 247.668L244.515 246.939L244.507 246.946L245.2 247.668ZM248.566 247.668L247.874 248.389L247.881 248.396L248.566 247.668ZM248.566 250.878L247.881 250.149L247.874 250.156L248.566 250.878ZM246.185 277V255.182H244.185V277H246.185ZM245.185 256.182H248.538V254.182H245.185V256.182ZM247.538 255.182V277H249.538V255.182H247.538ZM248.538 276H245.185V278H248.538V276ZM246.89 250.545C246.489 250.545 246.171 250.419 245.884 250.149L244.515 251.606C245.175 252.227 245.984 252.545 246.89 252.545V250.545ZM245.892 250.156C245.618 249.894 245.504 249.617 245.504 249.273H243.504C243.504 250.179 243.853 250.972 244.507 251.6L245.892 250.156ZM245.504 249.273C245.504 248.929 245.618 248.652 245.892 248.389L244.507 246.946C243.853 247.573 243.504 248.367 243.504 249.273H245.504ZM245.884 248.396C246.171 248.127 246.489 248 246.89 248V246C245.984 246 245.175 246.319 244.515 246.939L245.884 248.396ZM246.89 248C247.29 248 247.599 248.126 247.874 248.389L249.258 246.946C248.605 246.319 247.797 246 246.89 246V248ZM247.881 248.396C248.163 248.661 248.276 248.936 248.276 249.273H250.276C250.276 248.36 249.917 247.565 249.251 246.939L247.881 248.396ZM248.276 249.273C248.276 249.61 248.163 249.885 247.881 250.149L249.251 251.606C249.917 250.981 250.276 250.186 250.276 249.273H248.276ZM247.874 250.156C247.599 250.419 247.29 250.545 246.89 250.545V252.545C247.797 252.545 248.605 252.226 249.258 251.6L247.874 250.156ZM274.132 260.068L274.404 261.03L275.414 260.745L275.08 259.75L274.132 260.068ZM271.121 260.92L270.185 261.274L270.509 262.133L271.393 261.883L271.121 260.92ZM270.283 259.457L269.481 260.055L269.487 260.064L269.494 260.072L270.283 259.457ZM268.805 258.264L269.253 257.37L268.805 258.264ZM263.067 258.719L263.634 259.543L263.636 259.541L263.067 258.719ZM262.655 263.009L262.032 263.791L262.655 263.009ZM265.496 264.216L265.253 265.186L265.257 265.187L265.496 264.216ZM268.734 265.011L268.496 265.983L268.499 265.983L268.734 265.011ZM273.095 267.185L272.381 267.885L272.385 267.888L273.095 267.185ZM273.45 274.273L272.643 273.683L272.639 273.688L273.45 274.273ZM260.482 276.006L261.034 275.172L260.482 276.006ZM257.712 271.773L257.469 270.803L256.536 271.036L256.733 271.977L257.712 271.773ZM260.893 270.977L261.862 270.727L261.614 269.766L260.651 270.007L260.893 270.977ZM262.612 273.619L262.041 274.44L262.045 274.443L262.612 273.619ZM269.672 273.506L270.257 274.317L270.259 274.315L269.672 273.506ZM270.268 269.188L269.568 269.901L269.574 269.907L270.268 269.188ZM267.825 268.023L267.597 268.996L267.599 268.997L267.825 268.023ZM264.189 267.17L263.958 268.144L263.961 268.144L264.189 267.17ZM259.786 264.969L259.051 265.648L259.058 265.655L259.786 264.969ZM259.43 257.938L258.627 257.343L258.623 257.348L259.43 257.938ZM262.286 255.707L261.879 254.794L261.876 254.795L262.286 255.707ZM271.49 256.318L270.88 257.111L270.883 257.113L271.49 256.318ZM273.86 259.106L270.848 259.958L271.393 261.883L274.404 261.03L273.86 259.106ZM272.056 260.567C271.827 259.961 271.495 259.386 271.071 258.842L269.494 260.072C269.809 260.476 270.035 260.876 270.185 261.274L272.056 260.567ZM271.085 258.86C270.617 258.233 269.995 257.741 269.253 257.37L268.358 259.159C268.866 259.412 269.228 259.716 269.481 260.055L271.085 258.86ZM269.253 257.37C268.445 256.966 267.478 256.795 266.405 256.795V258.795C267.283 258.795 267.916 258.937 268.358 259.159L269.253 257.37ZM266.405 256.795C264.914 256.795 263.591 257.141 262.498 257.896L263.636 259.541C264.323 259.066 265.225 258.795 266.405 258.795V256.795ZM262.5 257.895C261.392 258.657 260.746 259.717 260.746 261.034H262.746C262.746 260.476 262.98 259.992 263.634 259.543L262.5 257.895ZM260.746 261.034C260.746 262.146 261.168 263.102 262.032 263.791L263.278 262.226C262.93 261.949 262.746 261.589 262.746 261.034H260.746ZM262.032 263.791C262.802 264.405 263.912 264.851 265.253 265.186L265.738 263.246C264.504 262.937 263.719 262.578 263.278 262.226L262.032 263.791ZM265.257 265.187L268.496 265.983L268.973 264.04L265.734 263.245L265.257 265.187ZM268.499 265.983C270.348 266.432 271.603 267.092 272.381 267.885L273.809 266.485C272.674 265.327 271.023 264.538 268.97 264.04L268.499 265.983ZM272.385 267.888C273.132 268.643 273.53 269.624 273.53 270.92H275.53C275.53 269.167 274.971 267.658 273.806 266.481L272.385 267.888ZM273.53 270.92C273.53 271.964 273.234 272.874 272.643 273.683L274.258 274.863C275.106 273.702 275.53 272.377 275.53 270.92H273.53ZM272.639 273.688C272.047 274.508 271.203 275.181 270.061 275.688L270.873 277.516C272.289 276.887 273.433 276.007 274.261 274.858L272.639 273.688ZM270.061 275.688C268.935 276.189 267.591 276.455 266.007 276.455V278.455C267.813 278.455 269.443 278.152 270.873 277.516L270.061 275.688ZM266.007 276.455C263.925 276.455 262.289 276.003 261.034 275.172L259.929 276.839C261.591 277.94 263.639 278.455 266.007 278.455V276.455ZM261.034 275.172C259.814 274.364 259.03 273.19 258.69 271.568L256.733 271.977C257.17 274.067 258.232 275.715 259.929 276.839L261.034 275.172ZM257.954 272.743L261.136 271.947L260.651 270.007L257.469 270.803L257.954 272.743ZM259.925 271.227C260.277 272.589 260.967 273.692 262.041 274.44L263.184 272.799C262.572 272.372 262.116 271.714 261.862 270.727L259.925 271.227ZM262.045 274.443C263.111 275.177 264.44 275.5 265.95 275.5V273.5C264.715 273.5 263.818 273.236 263.18 272.796L262.045 274.443ZM265.95 275.5C267.645 275.5 269.114 275.141 270.257 274.317L269.087 272.695C268.392 273.196 267.381 273.5 265.95 273.5V275.5ZM270.259 274.315C271.381 273.502 272.064 272.422 272.064 271.091H270.064C270.064 271.635 269.819 272.165 269.085 272.696L270.259 274.315ZM272.064 271.091C272.064 270.07 271.695 269.173 270.963 268.468L269.574 269.907C269.903 270.224 270.064 270.596 270.064 271.091H272.064ZM270.969 268.474C270.257 267.774 269.244 267.326 268.052 267.049L267.599 268.997C268.604 269.231 269.22 269.559 269.568 269.901L270.969 268.474ZM268.053 267.049L264.417 266.197L263.961 268.144L267.597 268.996L268.053 267.049ZM264.419 266.197C262.522 265.748 261.265 265.08 260.513 264.283L259.058 265.655C260.181 266.846 261.86 267.646 263.958 268.144L264.419 266.197ZM260.52 264.29C259.781 263.49 259.393 262.486 259.393 261.205H257.393C257.393 262.934 257.934 264.44 259.051 265.648L260.52 264.29ZM259.393 261.205C259.393 260.174 259.678 259.294 260.238 258.527L258.623 257.348C257.8 258.475 257.393 259.773 257.393 261.205H259.393ZM260.234 258.532C260.821 257.739 261.63 257.098 262.695 256.62L261.876 254.795C260.536 255.397 259.441 256.242 258.627 257.343L260.234 258.532ZM262.692 256.621C263.758 256.146 264.989 255.898 266.405 255.898V253.898C264.752 253.898 263.237 254.189 261.879 254.794L262.692 256.621ZM266.405 255.898C268.428 255.898 269.881 256.342 270.88 257.111L272.1 255.526C270.637 254.4 268.7 253.898 266.405 253.898V255.898ZM270.883 257.113C271.957 257.933 272.723 259.013 273.184 260.386L275.08 259.75C274.499 258.018 273.504 256.598 272.097 255.523L270.883 257.113ZM293.065 255.182H294.065V254.182H293.065V255.182ZM293.065 258.023V259.023H294.065V258.023H293.065ZM281.758 258.023H280.758V259.023H281.758V258.023ZM281.758 255.182V254.182H280.758V255.182H281.758ZM285.053 249.955V248.955H284.053V249.955H285.053ZM288.406 249.955H289.406V248.955H288.406V249.955ZM288.817 272.881L287.952 273.382L287.958 273.393L287.965 273.403L288.817 272.881ZM289.897 273.818L289.55 274.756L289.562 274.761L289.575 274.765L289.897 273.818ZM292.212 273.989L292.37 274.976L292.389 274.973L292.408 274.969L292.212 273.989ZM292.781 273.875L293.756 273.654L293.541 272.703L292.584 272.894L292.781 273.875ZM293.462 276.886L293.813 277.823L294.63 277.516L294.438 276.666L293.462 276.886ZM292.511 277.142L292.306 276.163L292.295 276.166L292.284 276.168L292.511 277.142ZM288.178 276.673L287.766 277.584L287.769 277.586L288.178 276.673ZM285.934 274.812L285.116 275.388L285.121 275.395L285.934 274.812ZM292.065 255.182V258.023H294.065V255.182H292.065ZM293.065 257.023H281.758V259.023H293.065V257.023ZM282.758 258.023V255.182H280.758V258.023H282.758ZM281.758 256.182H293.065V254.182H281.758V256.182ZM285.053 250.955H288.406V248.955H285.053V250.955ZM287.406 249.955V270.75H289.406V249.955H287.406ZM287.406 270.75C287.406 271.761 287.546 272.682 287.952 273.382L289.682 272.379C289.539 272.132 289.406 271.633 289.406 270.75H287.406ZM287.965 273.403C288.345 274.024 288.869 274.504 289.55 274.756L290.244 272.88C290.053 272.81 289.858 272.665 289.67 272.359L287.965 273.403ZM289.575 274.765C290.128 274.953 290.706 275.045 291.303 275.045V273.045C290.915 273.045 290.556 272.986 290.219 272.872L289.575 274.765ZM291.303 275.045C291.7 275.045 292.061 275.026 292.37 274.976L292.054 273.001C291.89 273.028 291.645 273.045 291.303 273.045V275.045ZM292.408 274.969C292.645 274.922 292.835 274.884 292.977 274.856L292.584 272.894C292.442 272.923 292.253 272.961 292.016 273.008L292.408 274.969ZM291.805 274.096L292.487 277.107L294.438 276.666L293.756 273.654L291.805 274.096ZM293.111 275.95C292.953 276.009 292.693 276.082 292.306 276.163L292.716 278.121C293.143 278.031 293.517 277.934 293.813 277.823L293.111 275.95ZM292.284 276.168C291.978 276.239 291.545 276.284 290.962 276.284V278.284C291.63 278.284 292.229 278.234 292.737 278.116L292.284 276.168ZM290.962 276.284C290.164 276.284 289.374 276.113 288.587 275.761L287.769 277.586C288.8 278.048 289.867 278.284 290.962 278.284V276.284ZM288.591 275.762C287.857 275.43 287.245 274.926 286.747 274.23L285.121 275.395C285.816 276.365 286.7 277.102 287.766 277.584L288.591 275.762ZM286.751 274.237C286.309 273.609 286.053 272.773 286.053 271.659H284.053C284.053 273.083 284.384 274.349 285.116 275.388L286.751 274.237ZM286.053 271.659V249.955H284.053V271.659H286.053Z" fill="white"/>
<path d="M186 85H79.3578C78.6839 85 78.2029 85.6531 78.4029 86.2967L93.7815 135.797C93.9114 136.215 94.2985 136.5 94.7365 136.5H170.25C170.694 136.5 171.085 136.206 171.21 135.78L186 85ZM186 85L196.245 60.1193C196.399 59.7445 196.764 59.5 197.17 59.5H225M107.5 103H154.5" stroke="white" stroke-width="8"/>
<path d="M122 150.5C122 156.172 117.204 161 111 161C104.796 161 100 156.172 100 150.5C100 144.828 104.796 140 111 140C117.204 140 122 144.828 122 150.5Z" stroke="white" stroke-width="8"/>
<path d="M163 150.5C163 156.172 158.204 161 152 161C145.796 161 141 156.172 141 150.5C141 144.828 145.796 140 152 140C158.204 140 163 144.828 163 150.5Z" stroke="white" stroke-width="8"/>
<circle cx="152" cy="98" r="94" stroke="white" stroke-width="8"/>
</svg>
